<svg width="161" height="35" viewBox="0 0 161 35" fill="none" xmlns="http://www.w3.org/2000/svg">
<g id="logo">
<path id="Vector" fill-rule="evenodd" clip-rule="evenodd" d="M142.561 26.7796H148.714V17.6368C148.714 15.6116 149.657 13.96 151.879 13.96C153.727 13.96 154.847 15.0218 154.847 17.1453V26.7796H161V15.7886C161 11.4433 158.562 8.49398 153.648 8.49398C150.876 8.49398 149.421 9.43775 148.379 10.6371H148.026L147.456 9.00519H142.561V26.7796ZM118.126 20.2322H130.255V14.9234H118.126V20.2322ZM136.879 6.68507C138.727 6.68507 140.261 5.15144 140.261 3.34254C140.261 1.49431 138.688 0 136.879 0C135.15 0 133.518 1.43532 133.518 3.34254C133.518 5.21043 135.051 6.68507 136.879 6.68507ZM133.793 26.7796H139.946V9.00519H133.793V26.7796ZM84.2744 34.8607C91.2727 34.8607 95.0274 30.8497 95.0274 23.9286V18.4429H88.9137C88.6778 20.4878 86.9675 21.8838 84.8838 21.8838H80.6966V13.9207H84.8838C86.9479 13.9207 88.6385 15.2577 88.9137 17.3419H95.0274V9.00519H91.2333L90.2701 10.7944H89.9556C88.4615 9.14282 86.3974 8.49398 84.0778 8.49398C78.259 8.49398 74.8188 12.9376 74.8188 18.1677C74.8188 23.0635 78.2983 26.9173 84.0385 26.9173C86.0239 26.9173 87.4786 26.2291 88.5992 25.187H88.9137V25.7769C88.9137 28.6672 86.4368 29.611 83.5863 29.611C81.4632 29.611 79.0256 28.9424 77.2171 27.802H76.8436V33.2877C79.3402 34.2905 81.9154 34.8607 84.2744 34.8607ZM12.8957 27.3105C16.5521 27.3105 18.6752 26.7206 20.4838 25.8162V19.9766H20.1103C18.6752 20.8417 16.6897 21.4905 14.0949 21.4905C9.31795 21.4905 6.82137 18.4036 6.82137 14.7858C6.82137 11.168 9.31795 8.10074 14.0949 8.10074C16.6308 8.10074 18.6752 8.80857 20.1103 9.63437H20.4838V3.79476C18.6752 2.89031 16.5521 2.30045 12.8957 2.30045C5.24872 2.30045 0 7.62885 0 14.7858C0 21.9428 5.24872 27.3105 12.8957 27.3105ZM22.1547 26.7796H28.3077V17.6368C28.3077 15.6116 29.2513 13.96 31.4727 13.96C33.3205 13.96 34.4214 15.0218 34.4214 17.1453V26.7796H40.5744V15.7886C40.5744 11.4433 38.1564 8.49398 33.2419 8.49398C30.5684 8.49398 29.3889 9.31978 28.347 10.2242H28.0325V2.30045H22.1547V26.7796ZM51.0521 27.3105C53.3718 27.3105 55.3966 26.6223 56.6744 25.01H56.9889L57.9325 26.7796H61.8641V9.00519H58.0111L57.0675 10.7944H56.753C55.4556 9.18215 53.4111 8.49398 51.0718 8.49398C45.5675 8.49398 42.1863 12.4854 41.8521 17.3419H47.6316C47.9068 15.2577 49.5974 13.9207 51.6615 13.9207H54.7872L54.8068 15.6116H56.7333V16.5751H54.8068L54.8462 19.2098H56.7333V20.1929H54.8462L54.8658 21.8838H51.6615C49.5581 21.8838 47.8675 20.4878 47.612 18.4429H41.8325C41.9701 23.2208 45.4103 27.3105 51.0521 27.3105ZM64.0855 26.7796H70.0222V18.5019C70.0222 15.1987 72.2239 14.2943 74.347 14.2943H75.035V8.49398H74.3863C72.3222 8.55296 70.7299 9.43775 69.688 10.6371H69.3735L68.7838 9.00519H64.0855V26.7796ZM109.732 15.9262H102.222C102.773 13.7044 104.306 12.8786 106.115 12.8786C108.277 12.8786 109.673 14.2353 109.732 15.7689V15.9262ZM114.823 16.2408C114.823 12.1118 111.678 8.49398 106.056 8.49398C100.551 8.49398 96.4821 12.0331 96.4821 17.9907C96.4821 23.732 100.512 27.3498 106.527 27.3498C109.535 27.3498 111.717 26.8976 113.604 25.8555V21.5299H113.172C111.442 22.2377 109.85 22.5523 107.432 22.5523C105.328 22.5523 102.891 22.0214 102.183 19.5833H114.194C114.705 18.5413 114.823 17.4009 114.823 16.2408Z" fill="#369C96"/>
</g>
</svg>
